# xmcd
#
# Track frame offsets: 
#        150
#        20264
#        41844
#        66038
#        91198
#        115825
#        137329
#        160129
#        179413
#        199980
#        220942
#        241407
#        262984
#        286371
#        312815
#
# Disc length: 4486 seconds
#
# Revision: 2
# Processed by: cddbd v1.5.2PL0 Copyright (c) Steve Scherf et al.
# Submitted via: ExactAudioCopy v1.3
#
DISCID=cf11840f
DTITLE=Various Artist - Kiss?Endless Love Story?
DYEAR=2003
DGENRE=
TTITLE0=????? - ???????????
TTITLE1=My Liittle Lover - Destiny
TTITLE2=????? - ????????
TTITLE3=????? - You're My Only Shinin' Star
TTITLE4=???? - ???????
TTITLE5=????? - Get Along Together ??????????
TTITLE6=????? - Believe
TTITLE7=Sing Like Talking - Spirit Of Love
TTITLE8=???? - ????????
TTITLE9=????? - Sweet Memories
TTITLE10=?????? - ????????
TTITLE11=????? - ????
TTITLE12=?? - ????? ???
TTITLE13=?????? - Zutto
TTITLE14=S.E.N.S. - Requiem
EXTD=
EXTT0=
EXTT1=
EXTT2=
EXTT3=
EXTT4=
EXTT5=
EXTT6=
EXTT7=
EXTT8=
EXTT9=
EXTT10=
EXTT11=
EXTT12=
EXTT13=
EXTT14=
PLAYORDER=
